<?xml version="1.0" encoding="UTF-8" standalone="no"?>
<!-- Created with Inkscape (http://www.inkscape.org/) -->

<svg
   width="800"
   height="800"
   viewBox="0 0 211.66666 211.66667"
   version="1.1"
   id="svg1"
   xmlns:inkscape="http://www.inkscape.org/namespaces/inkscape"
   xmlns:sodipodi="http://sodipodi.sourceforge.net/DTD/sodipodi-0.dtd"
   xmlns="http://www.w3.org/2000/svg"
   xmlns:svg="http://www.w3.org/2000/svg">
  <sodipodi:namedview
     id="namedview1"
     pagecolor="#ffffff"
     bordercolor="#111111"
     borderopacity="1"
     inkscape:showpageshadow="0"
     inkscape:pageopacity="0"
     inkscape:pagecheckerboard="1"
     inkscape:deskcolor="#d1d1d1"
     inkscape:document-units="mm" />
  <defs
     id="defs1" />
  <g
     inkscape:label="Layer 1"
     inkscape:groupmode="layer"
     id="layer1">
    <g
       id="g21">
      <circle
         style="opacity:1;fill:#fbfbe1;fill-opacity:1;stroke:none;stroke-width:3.00001;stroke-linecap:round;stroke-linejoin:round;stroke-dasharray:none;stroke-dashoffset:0;stroke-opacity:1"
         id="path12"
         cx="105.90946"
         cy="105.90945"
         r="92.477036" />
      <path
         style="opacity:1;fill:#f6e4b9;fill-opacity:1;stroke:none;stroke-width:3;stroke-linecap:round;stroke-linejoin:round;stroke-dasharray:none;stroke-dashoffset:0;stroke-opacity:1"
         d="m 157.05598,91.443777 2.32484,12.915793 -1.54989,11.62421 -0.25832,5.68294 49.08,0.25832 -3.61642,-14.724 3.87473,-16.532209 z"
         id="path21" />
      <path
         style="opacity:1;fill:#f6e4b9;fill-opacity:1;stroke:none;stroke-width:3;stroke-linecap:round;stroke-linejoin:round;stroke-dasharray:none;stroke-dashoffset:0;stroke-opacity:1"
         d="M 54.246308,90.410516 5.6829467,89.893885 9.0410516,106.68441 5.4246308,121.15009 55.796203,121.92504 53.213047,110.30083 Z"
         id="path20" />
      <ellipse
         style="opacity:1;fill:#e1fbea;fill-opacity:1;stroke:none;stroke-width:3.00001;stroke-linecap:round;stroke-linejoin:round;stroke-dasharray:none;stroke-dashoffset:0;stroke-opacity:1"
         id="circle12"
         cx="105.90946"
         cy="105.90945"
         rx="52.438091"
         ry="53.471355" />
      <path
         id="path2"
         style="display:inline;fill:none;stroke:none;stroke-width:0.0890694;stroke-linecap:round;stroke-linejoin:round;stroke-opacity:1"
         d="m 105.83335,25.464349 a 80.368994,80.368994 0 0 0 -80.369001,80.369001 80.368994,80.368994 0 0 0 80.369001,80.369 80.368994,80.368994 0 0 0 80.369,-80.369 80.368994,80.368994 0 0 0 -80.369,-80.369001 z" />
      <path
         id="path1"
         style="display:inline;fill:none;stroke:none;stroke-width:0.0682432;stroke-linecap:round;stroke-linejoin:round;stroke-opacity:1"
         d="M 105.83334,168.03417 A 62.200829,62.200829 0 0 1 43.632507,105.83333 62.200829,62.200829 0 0 1 105.83334,43.632507 62.200829,62.200829 0 0 1 168.03417,105.83333 62.200829,62.200829 0 0 1 105.83334,168.03417 Z" />
      <path
         d="m 50.028381,77.781869 -3.719334,9.451766 -16.329811,-6.425891 3.575275,-9.085677 2.629188,1.034604 -2.331131,5.923994 4.160108,1.63703 2.165246,-5.502436 2.618094,1.030238 -2.165245,5.502436 4.304325,1.693781 2.47519,-6.290083 z m 8.20571,-12.394356 -1.906146,2.711202 -1.579909,-1.110776 -0.03428,0.04876 q 1.038105,2.420341 -0.374363,4.429361 -2.530101,3.598683 -6.860222,0.554334 l -6.173349,-4.340254 1.913003,-2.720955 5.890525,4.141411 q 2.486894,1.748444 3.844509,-0.182556 0.665095,-0.945995 0.410425,-2.014007 -0.264421,-1.074869 -1.405467,-1.877096 L 46.078044,60.892382 47.98419,58.18118 Z m 11.888919,-10.823462 -2.528476,2.142619 -1.194626,-1.409762 -0.04548,0.03854 q 0.376349,2.509452 -1.651889,4.228172 -1.800857,1.526038 -3.977622,1.151679 -2.176765,-0.374359 -4.057338,-2.593597 -1.996182,-2.355667 -1.996556,-4.808686 -0.0081,-2.462114 1.929205,-4.103761 1.882714,-1.595404 3.835021,-0.85895 l 0.04548,-0.03854 -4.870992,-5.748191 2.528477,-2.142619 z m -7.124162,-3.354448 q -0.855506,-1.009571 -2.036613,-1.14943 -1.188813,-0.148953 -2.125623,0.644895 -1.091429,0.924872 -1.003612,2.319333 0.09691,1.386754 1.337781,2.851087 1.163797,1.373381 2.420588,1.620994 1.249084,0.238518 2.285941,-0.64011 1.000476,-0.847799 0.966611,-2.178594 -0.03386,-1.330794 -1.074346,-2.558651 z m 18.20976,-8.535938 -7.501118,3.711219 q 1.59847,2.773802 4.665166,1.256537 1.869937,-0.925162 2.847459,-2.632484 l 1.120768,2.265295 q -1.110698,1.680104 -3.557643,2.890744 -2.617912,1.295226 -4.832508,0.502175 -2.20391,-0.798337 -3.552002,-3.523102 -1.32166,-2.671338 -0.586314,-5.110102 0.740745,-2.454736 3.091523,-3.617796 2.350777,-1.16306 4.378772,-0.370794 2.027994,0.792266 3.27564,3.314009 z m -3.777703,-0.565034 q -1.321659,-2.671338 -3.522842,-1.582291 -0.91894,0.454651 -1.264682,1.530173 -0.335056,1.070235 0.09665,2.372951 z m 29.583005,1.25853 -10.009632,0.754331 -1.318735,-17.499021 3.388058,-0.255326 1.107309,14.693472 6.62157,-0.499005 z m 4.93427,-11.355052 q 0.90805,-0.361675 2.28409,-0.462421 1.37775,-0.112545 2.4395,0.04211 5.02557,0.732047 4.28322,5.828408 l -1.10667,7.597353 -3.13803,-0.4571 0.26635,-1.828555 -0.059,-0.0086 q -1.56153,1.953128 -4.02713,1.593979 -1.79317,-0.2612 -2.69705,-1.416896 -0.90216,-1.167492 -0.65471,-2.866279 0.51725,-3.550937 4.82311,-3.502005 l 3.52529,0.03161 q 0.34541,-2.371223 -1.96683,-2.708033 -2.20607,-0.321345 -4.35365,0.77538 z m 3.13315,6.528299 q -2.16301,-0.03798 -2.40015,1.590023 -0.10655,0.731422 0.33371,1.265402 0.44026,0.53398 1.30145,0.659425 1.17971,0.171842 2.06682,-0.54226 0.88882,-0.725899 1.07269,-1.988193 l 0.13747,-0.94377 z m 12.42288,7.270439 -2.76668,6.789755 -3.08023,-1.255132 6.90547,-16.946787 3.08023,1.255132 -0.74678,1.832682 0.0331,0.0135 q 2.20616,-1.559849 4.67918,-0.552144 2.19701,0.895237 2.83028,2.942682 0.64431,2.051943 -0.44887,4.734724 -1.17865,2.892546 -3.34472,4.069659 -2.15052,1.170572 -4.52417,0.203355 -2.14181,-0.872744 -2.5837,-3.073926 z m 1.42241,-3.617117 q -0.51285,1.258589 -0.12609,2.394561 0.39126,1.124932 1.5284,1.588296 1.34691,0.548839 2.53607,-0.189576 1.18915,-0.738415 1.96292,-2.637338 1.3721,-3.367277 -1.2886,-4.451459 -1.25859,-0.51285 -2.4138,0.110664 -1.1552,0.623514 -1.73553,2.047706 z m 9.42367,10.589279 10.1053,-15.541732 2.77852,1.806607 -10.1053,15.541732 z m 14.50293,-4.186865 q 0.95257,0.219048 2.14161,0.918898 1.19718,0.691124 1.98245,1.422259 3.71697,3.460708 0.20752,7.230025 l -5.23168,5.619074 -2.32093,-2.160911 1.25918,-1.352417 -0.0436,-0.04062 q -2.39527,0.718159 -4.21885,-0.9797 -1.32624,-1.234807 -1.41227,-2.699467 -0.0779,-1.473385 1.0919,-2.729823 2.44525,-2.626307 5.95883,-0.136825 l 2.88146,2.031241 q 1.63286,-1.753779 -0.0773,-3.34603 -1.63162,-1.519137 -4.02177,-1.838695 z m -1.13649,7.151479 q -1.7574,-1.261589 -2.87847,-0.0575 -0.50367,0.540967 -0.44531,1.230573 0.0584,0.689605 0.6953,1.282638 0.87253,0.812372 2.00833,0.729646 1.14393,-0.09145 2.01317,-1.025056 l 0.6499,-0.698022 z m 8.49863,18.498138 q -1.4239,-0.652154 -2.75502,-2.572572 -1.60278,-2.31234 -1.1804,-4.737411 0.43896,-2.422064 2.74151,-4.018049 2.62587,-1.820102 5.20103,-1.327688 2.57515,0.492415 4.35451,3.059504 1.16133,1.675467 1.28945,2.906661 l -2.40053,1.6639 q 0.0444,-1.568325 -0.82494,-2.822476 -0.99155,-1.430515 -2.49062,-1.667933 -1.48926,-0.244208 -3.01776,0.815254 -1.5089,1.04588 -1.79764,2.449972 -0.28874,1.404093 0.69601,2.82481 0.86251,1.244353 2.44775,1.857209 z m 10.33835,11.418384 -3.18016,-7.741224 q -2.87832,1.401541 -1.57818,4.5664 0.79278,1.929792 2.42793,3.023772 l -2.33781,0.960388 q -1.59873,-1.224937 -2.63613,-3.750208 -1.10988,-2.701709 -0.16462,-4.855739 0.94979,-2.143003 3.76177,-3.298187 2.75685,-1.132533 5.13852,-0.229236 2.39723,0.909795 3.39386,3.33582 0.99663,2.426024 0.0651,4.39396 -0.93149,1.967936 -3.53396,3.037047 z m 0.82658,-3.729217 q 2.75685,-1.132533 1.82364,-3.404174 -0.38959,-0.948355 -1.43844,-1.368113 -1.04432,-0.408731 -2.37393,-0.06873 z"
         id="text1"
         style="font-weight:bold;font-size:24.4155px;line-height:0.5;font-family:'Malgun Gothic';-inkscape-font-specification:'Malgun Gothic Bold';text-align:center;letter-spacing:0.79375px;word-spacing:0.762px;text-anchor:middle;fill:#354809;stroke-width:0.144186;stroke-linecap:round;stroke-linejoin:round"
         aria-label="Eude Laplace"
         transform="translate(2.09875)" />
      <path
         d="m 68.698537,160.383 -3.839232,-3.23276 -9.483269,11.26236 -2.608125,-2.19613 9.48327,-11.26235 -3.830113,-3.22508 1.819867,-2.16128 10.277469,8.65396 z m 4.283135,19.03307 -2.919811,-1.56803 3.378593,-6.29125 q 1.466501,-2.73076 -0.529053,-3.80243 -1.029286,-0.55276 -2.097856,-0.12525 -1.052427,0.42265 -1.689791,1.60948 l -3.378593,6.29125 -2.930314,-1.57367 8.770805,-16.33204 2.930315,1.57367 -3.7565,6.99495 0.03151,0.0169 q 2.315103,-1.2872 4.520716,-0.10272 3.739039,2.00798 1.313672,6.52423 z m 6.008775,-4.115 q 0.850528,-2.95585 3.083154,-4.16182 2.235922,-1.21743 5.214682,-0.36031 2.875649,0.82745 4.052278,2.98961 1.191381,2.15399 0.380413,4.97236 -0.843936,2.93293 -3.081587,4.19948 -2.222899,1.2584 -5.167289,0.41116 -2.887106,-0.83074 -4.098105,-3.00279 -1.207702,-2.1835 -0.383546,-5.04769 z m 3.243995,0.88382 q -1.091181,3.79219 2.05943,4.69876 3.036045,0.8736 4.153599,-3.01024 1.081292,-3.75782 -1.966209,-4.63472 -1.48938,-0.42857 -2.610963,0.36519 -1.118287,0.78229 -1.635857,2.58101 z m 23.891918,10.21954 -3.30671,-0.22287 0.12988,-1.92693 -0.0595,-0.004 q -1.53049,2.1432 -3.980789,1.97805 -4.389124,-0.29583 -4.033173,-5.57705 l 0.507472,-7.52931 3.318606,0.22367 -0.484223,7.18437 q -0.204431,3.03313 2.150707,3.19187 1.15378,0.0778 1.93467,-0.69407 0.78169,-0.78372 0.87549,-2.17539 l 0.48342,-7.17247 3.30671,0.22287 z m 17.10217,-3.2124 q 0.5083,3.4438 -1.1207,5.55211 -1.62725,2.1201 -5.23617,2.65277 -2.45312,0.36208 -4.09947,-0.17823 l -0.42127,-2.85411 q 2.11136,0.83319 4.06914,0.54423 2.00496,-0.29593 2.94338,-1.53106 0.95195,-1.22508 0.66125,-3.19465 l -0.16189,-1.09683 -0.0472,0.007 q -1.02246,2.38031 -3.65249,2.7685 -2.31159,0.34119 -3.9723,-1.11286 -1.66071,-1.45404 -2.07675,-4.27277 -0.4613,-3.12538 0.80866,-5.21684 1.28175,-2.09321 3.81743,-2.46747 2.2998,-0.33945 3.74726,1.30273 l 0.0472,-0.007 -0.22456,-1.52141 3.27869,-0.48393 z m -4.09802,-5.31208 q -0.18626,-1.26195 -1.10874,-2.04165 -0.92249,-0.7797 -2.13726,-0.6004 -1.41526,0.20889 -2.09073,1.42931 -0.66368,1.21868 -0.37298,3.18825 0.25067,1.69832 1.18882,2.58417 0.93815,0.88584 2.24727,0.69262 1.33271,-0.1967 2.01031,-1.32103 0.67761,-1.12433 0.44435,-2.70471 z m 20.52094,1.097 -3.10159,1.16798 -2.51662,-6.68291 q -1.09236,-2.90076 -3.21215,-2.1025 -1.09337,0.41174 -1.47418,1.49783 -0.37387,1.07072 0.10089,2.33144 l 2.51663,6.68291 -3.11274,1.17219 -6.53315,-17.34879 3.11274,-1.17219 2.79812,7.43042 0.0335,-0.0126 q 0.55315,-2.59048 2.89608,-3.47277 3.97181,-1.49569 5.7784,3.30172 z m 10.75054,-6.29661 q -0.50771,0.8018 -1.80861,1.5764 -3.30859,1.97003 -5.3945,-1.53319 l -3.18376,-5.34701 -1.78234,1.06125 -1.29302,-2.17158 1.78234,-1.06125 -1.43331,-2.40718 2.35361,-2.52528 1.92734,3.23689 2.48912,-1.4821 1.29303,2.17159 -2.48913,1.48209 2.8849,4.84509 q 1.06126,1.78234 2.46459,0.94675 0.58387,-0.34765 0.89062,-0.97429 z m 1.33146,-4.68628 q 2.17748,-0.28694 3.57282,-1.44309 1.79926,-1.49081 0.95497,-2.50978 -0.58567,-0.70686 -2.41169,-0.0144 -2.65273,1.02133 -3.76796,0.81518 -1.12284,-0.21533 -1.99755,-1.27102 -1.15615,-1.39535 -0.67197,-3.12799 0.47657,-1.74182 2.26665,-3.22504 1.24846,-1.03444 2.824,-1.67415 l 1.72661,2.08384 q -1.68438,0.26543 -3.02465,1.37594 -0.70685,0.58567 -0.91773,1.20938 -0.21087,0.62371 0.15423,1.06435 0.60089,0.72521 2.15334,0.15107 1.77854,-0.63761 2.70257,-0.83039 0.91642,-0.20196 1.75362,0.0797 0.83721,0.28169 1.48374,1.06198 1.217,1.46878 0.71132,3.25021 -0.49651,1.77382 -2.41511,3.36352 -1.61566,1.3387 -3.27172,1.84386 z"
         id="text2"
         style="font-weight:bold;font-size:24.4155px;line-height:0.5;font-family:'Malgun Gothic';-inkscape-font-specification:'Malgun Gothic Bold';text-align:center;letter-spacing:2.11667px;word-spacing:0.762px;text-anchor:middle;fill:#354809;stroke-width:0.144186;stroke-linecap:round;stroke-linejoin:round"
         aria-label="Thoughts" />
      <path
         id="path8"
         style="display:inline;opacity:1;fill:none;stroke:#354809;stroke-width:4;stroke-linecap:round;stroke-linejoin:round;stroke-dasharray:none;stroke-opacity:1"
         d="m 156.14296,90.076073 h 50.17524 l -4.00927,16.273887 4.00927,15.24063 h -50.22846 m -100.512736,0 H 5.3485383 L 9.3880851,105.83333 5.3485383,90.076073 v 0 l 50.2284637,1e-6 M 54.041749,155.62514 A 71.844223,71.844223 0 0 1 35.741371,121.60381 m 140.186869,-0.013 a 71.844223,71.844223 0 0 1 -18.3033,34.03432 m 0.93726,-49.7918 A 52.728855,52.728855 0 0 1 105.83334,158.5622 52.728855,52.728855 0 0 1 53.104488,105.83334 52.728855,52.728855 0 0 1 105.83334,53.104488 52.728855,52.728855 0 0 1 158.5622,105.83334 Z M 14.68088,90.046229 a 92.509483,92.509483 0 0 1 91.15246,-76.722369 92.509483,92.509483 0 0 1 91.15247,76.722362 m 0.004,31.549218 a 92.509483,92.509483 0 0 1 -91.1568,76.74739 92.509483,92.509483 0 0 1 -91.152459,-76.72237" />
      <text
         xml:space="preserve"
         style="font-style:normal;font-variant:normal;font-weight:bold;font-stretch:normal;font-size:22.5778px;line-height:0.5;font-family:'Malgun Gothic';-inkscape-font-specification:'Malgun Gothic Bold';text-align:center;letter-spacing:2.11667px;word-spacing:0.762px;text-anchor:middle;display:inline;opacity:1;fill:#354809;fill-opacity:1;stroke:none;stroke-width:3;stroke-linecap:round;stroke-linejoin:round;stroke-dasharray:6.00001, 6.00001;stroke-dashoffset:0;stroke-opacity:1"
         x="30.462799"
         y="112.50304"
         id="text12"><tspan
           sodipodi:role="line"
           id="tspan12"
           style="font-size:22.5778px;fill:#354809;fill-opacity:1;stroke-width:3"
           x="31.521135"
           y="112.50304">+</tspan></text>
      <text
         xml:space="preserve"
         style="font-style:normal;font-variant:normal;font-weight:bold;font-stretch:normal;font-size:22.5778px;line-height:0.5;font-family:'Malgun Gothic';-inkscape-font-specification:'Malgun Gothic Bold';text-align:center;letter-spacing:2.11667px;word-spacing:0.762px;text-anchor:middle;display:inline;fill:#354809;fill-opacity:1;stroke:none;stroke-width:3;stroke-linecap:round;stroke-linejoin:round;stroke-dasharray:6.00001, 6.00001;stroke-dashoffset:0;stroke-opacity:1"
         x="181.20395"
         y="112.50304"
         id="text12-7"><tspan
           sodipodi:role="line"
           id="tspan12-9"
           style="font-size:22.5778px;fill:#354809;fill-opacity:1;stroke-width:3"
           x="182.26228"
           y="112.50304">+</tspan></text>
    </g>
  </g>
</svg>
