<svg width="582" height="582" viewBox="0 0 582 582" fill="none" xmlns="http://www.w3.org/2000/svg">
<rect width="582" height="582" rx="291" fill="url(#paint0_linear)"/>
<path d="m 211.05815,338.01852 h -22.99219 v -34.89843 h 22.99219 v 4.125 h -18.35156 v 9.5625 h 18.35156 v 4.125 h -18.35156 v 12.96093 h 18.35156 z m 28.71094,0 h -4.40625 v -2.90625 q -2.22656,1.75782 -4.26563,2.69532 -2.03906,0.9375 -4.5,0.9375 -4.125,0 -6.42187,-2.50782 -2.29688,-2.53125 -2.29688,-7.40625 v -16.99218 h 4.40625 v 14.90625 q 0,1.99218 0.1875,3.42187 0.1875,1.40625 0.79688,2.41406 0.63281,1.03125 1.64062,1.5 1.00782,0.46875 2.92969,0.46875 1.71094,0 3.72656,-0.89062 2.03907,-0.89063 3.79688,-2.27344 v -19.54687 h 4.40625 z m 29.90625,0 h -4.40625 v -2.74218 q -1.89844,1.64062 -3.96094,2.55468 -2.0625,0.91407 -4.47656,0.91407 -4.6875,0 -7.45313,-3.60938 -2.74218,-3.60937 -2.74218,-10.00781 0,-3.32813 0.9375,-5.92969 0.96093,-2.60156 2.57812,-4.42969 1.59375,-1.78125 3.70313,-2.71875 2.13281,-0.9375 4.40625,-0.9375 2.0625,0 3.65625,0.44532 1.59375,0.42187 3.35156,1.33593 v -11.34375 h 4.40625 z m -4.40625,-6.44531 v -15.02344 q -1.78125,-0.79687 -3.1875,-1.10156 -1.40625,-0.30469 -3.07031,-0.30469 -3.70313,0 -5.76563,2.57813 -2.0625,2.57812 -2.0625,7.3125 0,4.66406 1.59375,7.10156 1.59375,2.41406 5.10938,2.41406 1.875,0 3.79687,-0.82031 1.92188,-0.84375 3.58594,-2.15625 z m 34.99219,-6.1875 h -19.28907 q 0,2.41406 0.72657,4.21875 0.72656,1.78125 1.99218,2.92969 1.21875,1.125 2.88282,1.6875 1.6875,0.5625 3.70312,0.5625 2.67188,0 5.36719,-1.05469 2.71875,-1.07812 3.86719,-2.10937 h 0.23437 v 4.80468 q -2.22656,0.9375 -4.54687,1.57032 -2.32032,0.63281 -4.875,0.63281 -6.51563,0 -10.17188,-3.51563 -3.65625,-3.53906 -3.65625,-10.03125 0,-6.42187 3.49219,-10.19531 3.51562,-3.77344 9.23437,-3.77344 5.29688,0 8.15625,3.09375 2.88282,3.09375 2.88282,8.78907 z m -4.28907,-3.375 q -0.0234,-3.46875 -1.75781,-5.36719 -1.71094,-1.89843 -5.22656,-1.89843 -3.53906,0 -5.64844,2.08593 -2.08594,2.08594 -2.36719,5.17969 z m 31.3125,16.00781 h -4.38281 v -2.78906 q -0.58594,0.39844 -1.59375,1.125 -0.98437,0.70313 -1.92187,1.125 -1.10157,0.53906 -2.53125,0.89063 -1.42969,0.375 -3.35157,0.375 -3.53906,0 -6,-2.34375 -2.46093,-2.34375 -2.46093,-5.97657 0,-2.97656 1.26562,-4.80468 1.28906,-1.85157 3.65625,-2.90625 2.39063,-1.05469 5.74219,-1.42969 3.35156,-0.375 7.19531,-0.5625 v -0.67969 q 0,-1.5 -0.53906,-2.48437 -0.51563,-0.98438 -1.5,-1.54688 -0.9375,-0.53906 -2.25,-0.72656 -1.3125,-0.1875 -2.74219,-0.1875 -1.73437,0 -3.86719,0.46875 -2.13281,0.44531 -4.40625,1.3125 h -0.23437 v -4.47656 q 1.28906,-0.35157 3.72656,-0.77344 2.4375,-0.42188 4.80469,-0.42188 2.76562,0 4.80469,0.46875 2.0625,0.44532 3.5625,1.54688 1.47656,1.07812 2.25,2.78906 0.77343,1.71094 0.77343,4.24219 z m -4.38281,-6.44531 v -7.28906 q -2.01562,0.11719 -4.75781,0.35156 -2.71875,0.23438 -4.3125,0.67969 -1.89844,0.53906 -3.07031,1.6875 -1.17188,1.125 -1.17188,3.11719 0,2.25 1.35938,3.39843 1.35937,1.125 4.14843,1.125 2.32032,0 4.24219,-0.89062 1.92188,-0.91406 3.5625,-2.17969 z m 51.07031,6.44531 h -4.40625 v -14.90625 q 0,-1.6875 -0.16406,-3.25781 -0.14062,-1.57031 -0.63281,-2.50781 -0.53906,-1.00781 -1.54688,-1.52344 -1.00781,-0.51562 -2.90625,-0.51562 -1.85156,0 -3.70312,0.9375 -1.85156,0.91406 -3.70313,2.34375 0.0703,0.53906 0.11719,1.26562 0.0469,0.70313 0.0469,1.40625 v 16.75781 h -4.40625 v -14.90625 q 0,-1.73437 -0.16407,-3.28125 -0.14062,-1.57031 -0.63281,-2.50781 -0.53906,-1.00781 -1.54687,-1.5 -1.00782,-0.51562 -2.90625,-0.51562 -1.80469,0 -3.63282,0.89062 -1.80468,0.89063 -3.60937,2.27344 v 19.54687 h -4.40625 v -26.17968 h 4.40625 v 2.90625 q 2.0625,-1.71094 4.10156,-2.67188 2.0625,-0.96094 4.38281,-0.96094 2.67188,0 4.52344,1.125 1.875,1.125 2.78906,3.11719 2.67188,-2.25 4.875,-3.23437 2.20313,-1.00782 4.71094,-1.00782 4.3125,0 6.35156,2.625 2.0625,2.60157 2.0625,7.28907 z m 30.79688,-13.07812 q 0,6.39844 -3.28125,10.10156 -3.28125,3.70313 -8.78906,3.70313 -5.55469,0 -8.83594,-3.70313 -3.25781,-3.70312 -3.25781,-10.10156 0,-6.39844 3.25781,-10.10156 3.28125,-3.72657 8.83594,-3.72657 5.50781,0 8.78906,3.72657 3.28125,3.70312 3.28125,10.10156 z m -4.54688,0 q 0,-5.08594 -1.99218,-7.54688 -1.99219,-2.48437 -5.53125,-2.48437 -3.58594,0 -5.57813,2.48437 -1.96875,2.46094 -1.96875,7.54688 0,4.92187 1.99219,7.47656 1.99219,2.53125 5.55469,2.53125 3.51562,0 5.50781,-2.50781 2.01562,-2.53125 2.01562,-7.5 z m 33.25782,13.07812 h -4.40625 v -14.90625 q 0,-1.80468 -0.21094,-3.375 -0.21094,-1.59375 -0.77344,-2.48437 -0.58594,-0.98438 -1.6875,-1.45313 -1.10156,-0.49218 -2.85937,-0.49218 -1.80469,0 -3.77344,0.89062 -1.96875,0.89063 -3.77344,2.27344 v 19.54687 h -4.40625 v -26.17968 h 4.40625 v 2.90625 q 2.0625,-1.71094 4.26563,-2.67188 2.20312,-0.96094 4.52343,-0.96094 4.24219,0 6.46875,2.55469 2.22657,2.55469 2.22657,7.35938 z m 13.21875,-30.5625 h -4.96875 v -4.57031 h 4.96875 z m -0.28125,30.5625 h -4.40625 v -26.17968 h 4.40625 z m 27.42187,-7.54687 q 0,3.58594 -2.97656,5.88281 -2.95313,2.29688 -8.08594,2.29688 -2.90625,0 -5.34375,-0.67969 -2.41406,-0.70313 -4.05469,-1.52344 v -4.94531 h 0.23438 q 2.08594,1.57031 4.64062,2.50781 2.55469,0.91406 4.89844,0.91406 2.90625,0 4.54688,-0.9375 1.64062,-0.9375 1.64062,-2.95312 0,-1.54688 -0.89062,-2.34375 -0.89063,-0.79688 -3.42188,-1.35938 -0.9375,-0.21093 -2.46094,-0.49218 -1.5,-0.28125 -2.74218,-0.60938 -3.44532,-0.91406 -4.89844,-2.67187 -1.42969,-1.78125 -1.42969,-4.35938 0,-1.61719 0.65625,-3.04687 0.67969,-1.42969 2.03906,-2.55469 1.3125,-1.10156 3.32813,-1.73438 2.03906,-0.65625 4.54687,-0.65625 2.34375,0 4.73438,0.58594 2.41406,0.5625 4.00781,1.38281 v 4.71094 h -0.23437 q -1.6875,-1.24219 -4.10157,-2.08594 -2.41406,-0.86718 -4.73437,-0.86718 -2.41406,0 -4.07813,0.9375 -1.66406,0.91406 -1.66406,2.74218 0,1.61719 1.00781,2.4375 0.98438,0.82032 3.1875,1.33594 1.21875,0.28125 2.71875,0.5625 1.52344,0.28125 2.53125,0.51563 3.07032,0.70312 4.73438,2.41406 1.66406,1.73437 1.66406,4.59375 z m 44.50781,7.54687 h -4.40625 v -14.90625 q 0,-1.6875 -0.16406,-3.25781 -0.14062,-1.57031 -0.63281,-2.50781 -0.53906,-1.00781 -1.54688,-1.52344 -1.00781,-0.51562 -2.90625,-0.51562 -1.85156,0 -3.70312,0.9375 -1.85156,0.91406 -3.70313,2.34375 0.0703,0.53906 0.11719,1.26562 0.0469,0.70313 0.0469,1.40625 v 16.75781 h -4.40625 v -14.90625 q 0,-1.73437 -0.16407,-3.28125 -0.14062,-1.57031 -0.63281,-2.50781 -0.53906,-1.00781 -1.54687,-1.5 -1.00782,-0.51562 -2.90625,-0.51562 -1.80469,0 -3.63282,0.89062 -1.80468,0.89063 -3.60937,2.27344 v 19.54687 h -4.40625 v -26.17968 h 4.40625 v 2.90625 q 2.0625,-1.71094 4.10156,-2.67188 2.0625,-0.96094 4.38281,-0.96094 2.67188,0 4.52344,1.125 1.875,1.125 2.78906,3.11719 2.67188,-2.25 4.875,-3.23437 2.20313,-1.00782 4.71094,-1.00782 4.3125,0 6.35156,2.625 2.0625,2.60157 2.0625,7.28907 z" fill="white"/>
<defs>
<linearGradient id="paint0_linear" x1="291" y1="0" x2="291" y2="582" gradientUnits="userSpaceOnUse">
<stop stop-color="#38D96D"/>
<stop offset="1" stop-color="#EDE272"/>
</linearGradient>
</defs>

</svg>
